<svg width="33" height="33" viewBox="0 0 33 33" fill="none" xmlns="http://www.w3.org/2000/svg">
<path d="M16.5 4.125V5.5V4.125ZM16.5 27.5V28.875V27.5ZM28.875 16.5H27.5H28.875ZM5.5 16.5H4.125H5.5ZM25.2505 25.2505L24.2784 24.2784L25.2505 25.2505ZM8.72162 8.72162L7.7495 7.7495L8.72162 8.72162ZM25.2505 7.7495L24.2784 8.72162L25.2505 7.7495ZM8.72162 24.2784L7.7495 25.2505L8.72162 24.2784ZM22 16.5C22 17.9587 21.4205 19.3576 20.3891 20.3891C19.3576 21.4205 17.9587 22 16.5 22C15.0413 22 13.6424 21.4205 12.6109 20.3891C11.5795 19.3576 11 17.9587 11 16.5C11 15.0413 11.5795 13.6424 12.6109 12.6109C13.6424 11.5795 15.0413 11 16.5 11C17.9587 11 19.3576 11.5795 20.3891 12.6109C21.4205 13.6424 22 15.0413 22 16.5V16.5Z" stroke="#FF8A00" stroke-width="2" stroke-linecap="round" stroke-linejoin="round"/>
</svg>
